<?xml version="1.0" encoding="utf-8"?>
<!-- Generator: Adobe Illustrator 19.0.0, SVG Export Plug-In . SVG Version: 6.00 Build 0)  -->
<svg version="1.1" id="Layer_1" xmlns="http://www.w3.org/2000/svg" xmlns:xlink="http://www.w3.org/1999/xlink" x="0px" y="0px"
	 viewBox="0 0 500 500" style="enable-background:new 0 0 500 500;" xml:space="preserve">
<g id="XMLID_1_">
	<path id="XMLID_36_" d="M76.6,302c-4.9-0.3-7.7-2.4-8.8-6.4c-0.3-1-0.3-1.2-0.3-9.7l0-8.7h2.6h2.6v8.1c0,7.1,0,8.1,0.2,8.7
		c0.7,2.5,2.5,3.7,5.3,3.7c3,0,4.7-1.4,5.2-4c0.1-0.5,0.1-3.3,0.1-8.6v-7.9h2.6h2.6l0,7.3c0,9.4-0.1,10.4-1,12.5
		c-1.3,2.9-4.3,4.7-8.1,5c-0.6,0-1.2,0.1-1.4,0.1C78.1,302.1,77.3,302.1,76.6,302z M206.3,302c-1.4-0.1-3.1-0.5-4.2-1
		c-1.1-0.5-2.3-1.1-2.3-1.3c0-0.1,1.8-3.6,1.9-3.7c0,0,0.3,0.1,0.6,0.3c3.2,2,7.2,2.1,8.5,0.2c0.2-0.4,0.3-0.5,0.2-1.1
		c-0.1-1.4-0.9-2.1-4.1-3.8c-1.1-0.6-2.3-1.3-2.8-1.6c-1.7-1.2-2.7-2.5-3.2-4.1c-0.3-0.9-0.3-2.9,0-3.8c0.6-1.9,2-3.5,3.8-4.3
		c1.3-0.6,2.5-0.8,4.3-0.8c2.2,0,4.1,0.4,5.7,1.2l0.4,0.2v2.2c0,1.2,0,2.2-0.1,2.3c0,0-0.4-0.1-0.9-0.3c-2.5-1.3-4.7-1.7-6.4-1.2
		c-1.2,0.4-2,1.4-1.7,2.4c0.3,1.1,1.2,1.8,3.9,3.3c2.6,1.3,3.7,2.1,4.7,3.1c1.3,1.4,1.8,2.6,1.8,4.6c0,1-0.1,1.4-0.3,2.2
		C215.1,300.5,211.2,302.4,206.3,302z M293,302c-3.6-0.3-6.2-1.5-8.3-3.8c-2.8-3.1-3.8-8-2.5-12.5c0.9-3.2,3-5.8,5.9-7.3
		c4.2-2.2,9.9-2,13.8,0.5c3.7,2.4,5.6,7,5,12c-0.3,2.7-1.1,4.8-2.5,6.6c-2,2.5-5.3,4.2-8.5,4.4c-0.7,0-1.3,0.1-1.4,0.1
		C294.3,302.1,293.7,302.1,293,302z M296.4,297.6c2.4-0.7,4.1-2.6,4.8-5.4c0.3-1,0.3-3.9,0.1-5c-0.6-2.9-2.3-4.9-4.9-5.7
		c-1.1-0.4-3-0.4-4.2,0c-2.5,0.7-4,2.4-4.8,5.2c-0.4,1.3-0.4,3.7-0.1,5.2c0.7,3.4,2.9,5.5,6,6C294,297.9,295.7,297.8,296.4,297.6z
		 M421.8,301.9c-0.9-0.1-2.6-0.5-3.6-0.9c-1.1-0.4-2.4-1.2-2.4-1.3c0.1-0.3,1.8-3.4,1.9-3.5c0.1-0.1,0.4,0,1.3,0.5
		c1.7,0.9,2.7,1.2,4.3,1.2c1,0,1.5,0,1.9-0.2c1.1-0.4,1.8-1.2,1.8-2.1c0-1.5-0.9-2.3-4.2-4.1c-4.6-2.4-6.1-4.3-6.1-7.5
		c0-3.4,2.1-5.9,5.8-6.8c2.1-0.5,5.4-0.2,7.3,0.6c0.4,0.2,0.9,0.4,1.1,0.4l0.3,0.1v2.3c0,1.3,0,2.3,0,2.3s-0.6-0.3-1.3-0.6
		c-1.8-0.9-2.9-1.1-4.4-1.1c-1.5,0-2.1,0.2-2.8,0.9c-0.3,0.3-0.4,0.5-0.5,1.1c-0.1,0.6,0,0.7,0.3,1.2c0.5,0.8,1.3,1.4,3.6,2.6
		c3,1.6,4.2,2.4,5.1,3.6c1,1.3,1.3,2.3,1.3,4.2c0,1.2,0,1.5-0.3,2.2c-1,2.5-3,4.1-6.1,4.7C424.9,302,423.4,302.1,421.8,301.9z
		 M142.2,301c-1.3-3.1-9.6-23.5-9.6-23.7c-0.1-0.2,0.1-0.2,2.8-0.2h2.8l2.4,6.1c1.3,3.4,2.8,7.3,3.3,8.7l1,2.6l0.3-1
		c0.4-1.2,1.3-3.3,4.4-10.8l2.4-5.6h2.6c1.5,0,2.6,0,2.6,0.1c0,0.1-2.4,5.6-5.4,12.3l-5.4,12.2l-2,0l-2,0L142.2,301z M95.2,289.5
		v-12.3l2.6,0l2.6,0l5.3,6.7c2.9,3.7,5.7,7.3,6.2,8l0.9,1.3l0-8l0-8h2.6h2.6v12.3v12.3l-2.4,0l-2.4,0l-2-2.5
		c-5.6-7.2-9.8-12.6-10.3-13.3l-0.6-0.8l0,8.4l0,8.4h-2.6h-2.6V289.5z M124.8,289.5v-12.3h2.6h2.6v12.3v12.3h-2.6h-2.6V289.5z
		 M160.1,289.5v-12.3h7.1c3.9,0,7.1,0,7.1,0.1c0,0.1-0.3,1-0.7,2.1l-0.7,2h-3.9h-3.9v2.8v2.8h3.9h3.9v2.1v2.1h-3.9h-3.9v3v3h4.5h4.5
		v2.2v2.2h-7.1h-7.1V289.5z M179.8,289.5v-12.3l4.8,0c4.5,0,4.9,0.1,5.8,0.3c2.7,0.7,4.5,2.2,5.2,4.5c0.3,1,0.4,2.9,0.1,3.9
		c-0.4,1.7-1.8,3.4-3.5,4.3l-0.7,0.4l0.4,0.3c0.6,0.5,1.3,1.5,2.3,3.2c1,1.5,4.4,7.3,4.5,7.6c0,0.1-0.5,0.2-2.9,0.2h-3l-1.8-3.1
		c-2.2-3.7-3.2-5.3-3.8-5.9c-0.4-0.4-0.4-0.4-1.4-0.4H185v4.8v4.8h-2.6h-2.6V289.5z M187.6,288.3c0.9-0.1,1.5-0.4,2.1-1
		c0.7-0.7,1-1.4,1-2.4c0.1-1.1-0.3-1.9-1-2.5c-0.7-0.7-1.4-0.8-3.2-0.9l-1.5-0.1v3.5v3.5l0.9,0C186.5,288.5,187.2,288.4,187.6,288.3
		z M220.7,289.5v-12.3h2.6h2.6v12.3v12.3h-2.6h-2.6V289.5z M236.5,291.6v-10.2h-3.6h-3.6v-2.1v-2.1h10.1h10.1l-0.1,0.3
		c0,0.2-0.3,1.1-0.6,2.1l-0.5,1.8l-3.3,0l-3.3,0v10.2v10.2h-2.6h-2.6V291.6z M258.1,296.9V292l-4.2-7.3c-2.3-4-4.2-7.3-4.2-7.4
		c-0.1-0.1,0.3-0.2,2.8-0.1l2.9,0l1.9,3.4c1,1.9,2.3,4.2,2.7,5.1l0.8,1.7l1-2c0.6-1.1,1.8-3.4,2.7-5.1l1.7-3.1h2.7
		c1.5,0,2.7,0,2.7,0c0,0-1.9,3.4-4.2,7.4l-4.2,7.4v4.9v4.9h-2.6h-2.6V296.9z M311.6,289.5v-12.3h7.2c4,0,7.2,0,7.2,0.1
		c0,0-0.3,1-0.6,2.1l-0.6,2l-3.9,0l-3.9,0v2.8v2.8h3.9h3.9l0,2.1l0,2.1l-3.9,0l-3.9,0v5.2v5.2h-2.6h-2.6V289.5z M338.2,289.4v-12.2
		h2.6h2.6v10.1v10.1h4.3h4.3v2.1v2.1h-6.9h-6.9V289.4z M355.2,289.4v-12.2h7.2h7.2l-0.7,2.1l-0.7,2.1l-3.9,0l-3.9,0v2.8v2.8h3.9h3.9
		v2.1v2.1h-3.9h-3.9v3v3h4.5h4.5v2.1v2.1h-7.1h-7.1V289.4z M373.8,289.4v-12.2h7.1c5.6,0,7.1,0,7.1,0.1c0,0.1-0.3,1-0.6,2.1l-0.6,2
		l-3.9,0l-3.9,0v2.8v2.8h3.9h3.9v2.1v2.1h-3.9H379v3v3h4.5h4.5v2.1v2.1h-7.1h-7.1V289.4z M392.3,289.4v-12.2l4.3,0
		c2.4,0,4.9,0.1,5.7,0.1c6.8,0.5,11.1,4.4,11.7,10.5c0.2,1.8,0.1,3.3-0.3,4.8c-1.2,4.5-4.6,7.6-9.8,8.7c-1.1,0.2-1.6,0.3-6.4,0.3
		l-5.3,0.1V289.4z M403.1,297c3.6-1,5.6-4,5.4-8.1c-0.1-2.2-0.8-3.8-2.1-5.1c-1.6-1.6-4-2.3-7.9-2.3l-1,0v8v8l2.3-0.1
		C401.7,297.3,402.3,297.2,403.1,297z M364.3,231.3v-33.3h33.6h33.6v33.3v33.3h-4h-4v-10v-10h-3h-3v10v10h-0.4h-0.4v-10.9v-10.9
		h-5.3H406v10.9v10.9h-0.5H405v-10v-10h-2.9h-2.9v10v10h-17.5h-17.5V231.3z M405,242.8v-1h6.2h6.2v1v1h2.3h2.3v-2v-2h-0.4h-0.4v-6.9
		V226h-0.7H420v-3.6v-3.6h-8.7h-8.7v3.6v3.6H402h-0.7v6.9v6.9h-0.4h-0.4v2v2h2.3h2.3V242.8z M405.1,235.4c0-2.4,0-4.8-0.1-5.5
		l-0.1-1.2h1.7h1.7v0.9v0.9h-1.1h-1.1v4.6v4.6h-0.5h-0.5L405.1,235.4z M409.6,234.7c0-2.8,0-5.2-0.1-5.5l-0.1-0.4h1.7h1.7v0.9v0.9
		h-1.1h-1.1v4.6v4.6h-0.5h-0.5L409.6,234.7z M414.2,236.7c0-1.7,0-4.1-0.1-5.5l-0.1-2.4h1.7h1.7v0.9v0.9h-1.1h-1.1v4.6v4.6h-0.5
		h-0.5L414.2,236.7z M403.8,226.9c-0.2-0.3-0.3-0.5-0.3-0.5c0,0,3.5-0.1,7.8-0.1c5.5,0,7.8,0,7.8,0.1c0,0.1-0.1,0.3-0.3,0.5
		l-0.3,0.4h-7.2h-7.2L403.8,226.9z M407.9,221.4v-1.3h0.8h0.8v0.5c0,0.5,0,0.5-0.4,0.5h-0.4v0.8v0.8h-0.4h-0.4V221.4z M410.5,221.4
		v-1.3h0.8h0.8v0.5c0,0.5,0,0.5-0.4,0.5h-0.4v0.8v0.8h-0.4h-0.4V221.4z M413.2,221.4v-1.3h0.8h0.8v0.5c0,0.5,0,0.5-0.5,0.5h-0.5v0.8
		c0,0.8,0,0.8-0.3,0.8h-0.3V221.4z M417.5,215.7l-0.3-2.1h-5.9c-3.3,0-5.9,0-5.9,0.1c0,0-0.3,2-0.5,3.8l-0.1,0.4h6.5h6.5
		L417.5,215.7z M416.7,212.7c-0.2-0.1-5.1-3.1-5.3-3.2c-0.1,0-1.2,0.6-2.9,1.6c-1.5,0.9-2.7,1.6-2.7,1.7c0,0,2.5,0,5.5,0
		C414.4,212.8,416.8,212.7,416.7,212.7z M410.1,251.4c-1.1-0.5-1.8-1.7-1.8-2.8c0-0.6,0.4-1.6,0.8-2c1.5-1.7,4.2-1.2,5.1,0.9
		c0.3,0.7,0.3,1.8,0,2.5C413.4,251.4,411.5,252,410.1,251.4z M412.5,250.4c0.7-0.5,1-1,1-1.9c0-0.6-0.1-0.9-0.3-1.2
		c-0.5-0.7-1-1-1.8-1c-0.9,0-1.5,0.3-1.9,1c-0.3,0.4-0.3,0.6-0.3,1.2c0,1,0.5,1.8,1.5,2.1C411.1,250.9,412.1,250.7,412.5,250.4z"/>
</g>
</svg>
